<svg width="13" height="13" viewBox="0 0 13 13" fill="none" xmlns="http://www.w3.org/2000/svg">
<path d="M11.1102 5.01122H7.88685V1.7897C7.88685 1.02303 7.26568 0.399994 6.49901 0.399994C5.73233 0.399994 5.1093 1.02303 5.1093 1.7897V5.01122H1.88778C1.12111 5.01122 0.499939 5.63425 0.499939 6.40093C0.499939 7.1676 1.12111 7.79064 1.88778 7.79064H5.1093V11.0103C5.1093 11.777 5.73233 12.4 6.49901 12.4C7.26568 12.4 7.88685 11.777 7.88685 11.0103V7.79064H11.1102C11.8769 7.79064 12.4999 7.1676 12.4999 6.40093C12.4999 5.63425 11.8769 5.01122 11.1102 5.01122Z" fill="white"/>
</svg>
