<svg width="23" height="23" viewBox="0 0 23 23" fill="none" xmlns="http://www.w3.org/2000/svg">
<path fill-rule="evenodd" clip-rule="evenodd" d="M1.12793 11.2498C1.12793 5.65974 5.6596 1.12807 11.2497 1.12807C16.8397 1.12807 21.3714 5.65974 21.3714 11.2498C21.3714 16.8399 16.8397 21.3716 11.2497 21.3716C5.6596 21.3716 1.12793 16.8399 1.12793 11.2498ZM11.2497 2.92807C6.65371 2.92807 2.92793 6.65385 2.92793 11.2498C2.92793 13.3225 3.68572 15.2183 4.93936 16.6751C6.31713 14.6684 8.62917 13.35 11.2502 13.35C13.8709 13.35 16.1828 14.6681 17.5606 16.6744C18.8139 15.2177 19.5714 13.3222 19.5714 11.2498C19.5714 6.65386 15.8456 2.92807 11.2497 2.92807ZM16.2254 17.9208C15.1926 16.256 13.35 15.15 11.2502 15.15C9.15021 15.15 7.3074 16.2562 6.27472 17.9214C7.66244 18.9579 9.38439 19.5716 11.2497 19.5716C13.1153 19.5716 14.8375 18.9576 16.2254 17.9208ZM7.5375 9.31252C7.5375 7.26217 9.19964 5.60002 11.25 5.60002C13.3004 5.60002 14.9625 7.26217 14.9625 9.31252C14.9625 11.3629 13.3004 13.025 11.25 13.025C9.19964 13.025 7.5375 11.3629 7.5375 9.31252ZM11.25 7.40002C10.1938 7.40002 9.3375 8.25628 9.3375 9.31252C9.3375 10.3688 10.1938 11.225 11.25 11.225C12.3062 11.225 13.1625 10.3688 13.1625 9.31252C13.1625 8.25628 12.3062 7.40002 11.25 7.40002Z" fill="black"/>
</svg>
