<svg width="23" height="23" viewBox="0 0 23 23" fill="none" xmlns="http://www.w3.org/2000/svg">
<path fill-rule="evenodd" clip-rule="evenodd" d="M3.75 1.5H18.75C20.2688 1.5 21.5 2.73122 21.5 4.25V19.25C21.5 20.7688 20.2688 22 18.75 22H3.75C2.23122 22 1 20.7688 1 19.25V4.25C1 2.73122 2.23122 1.5 3.75 1.5ZM3.75 3.5C3.33579 3.5 3 3.83579 3 4.25V12.7272L5.3636 10.3636C5.53618 10.191 5.77145 10.0959 6.01547 10.1001C6.2595 10.1043 6.49135 10.2074 6.6579 10.3859L11.8159 15.9113L15.8636 11.8636C16.2151 11.5121 16.7849 11.5121 17.1364 11.8636L19.5 14.2272V4.25C19.5 3.83579 19.1642 3.5 18.75 3.5H3.75ZM3 19.25V15.2728L5.97773 12.2951L11.131 17.8155L13.1082 20H3.75C3.33579 20 3 19.6642 3 19.25ZM18.75 20H15.536L13.0355 17.2373L16.5 13.7728L19.5 16.7728V19.25C19.5 19.6642 19.1642 20 18.75 20ZM10.1988 8.75C10.1988 8.16945 10.6695 7.69883 11.25 7.69883C11.8305 7.69883 12.3012 8.16945 12.3012 8.75C12.3012 9.33055 11.8305 9.80117 11.25 9.80117C10.6695 9.80117 10.1988 9.33055 10.1988 8.75ZM11.25 5.89883C9.67534 5.89883 8.39883 7.17534 8.39883 8.75C8.39883 10.3247 9.67534 11.6012 11.25 11.6012C12.8247 11.6012 14.1012 10.3247 14.1012 8.75C14.1012 7.17534 12.8247 5.89883 11.25 5.89883Z" fill="black"/>
</svg>
