<svg width="148" height="42" viewBox="0 0 148 42" fill="none" xmlns="http://www.w3.org/2000/svg">
<path d="M25.52 34.072C25.7333 34.072 25.8933 34.1787 26 34.392C26.128 34.6267 26.192 34.9253 26.192 35.288C26.192 35.9707 26.0107 36.6427 25.648 37.304C24.9227 38.6267 23.9627 39.64 22.768 40.344C21.5947 41.0693 20.3893 41.432 19.152 41.432C17.8933 41.432 16.8373 41.2293 15.984 40.824C15.1307 40.44 14.4053 39.8533 13.808 39.064C13.2107 38.296 12.6347 37.272 12.08 35.992C11.504 34.6693 11.024 33.6773 10.64 33.016C10.2773 32.376 9.89333 31.9067 9.488 31.608C9.08267 31.3093 8.56 31.096 7.92 30.968C5.552 30.4987 3.64267 29.3253 2.192 27.448C0.762667 25.5707 0.0480001 23.1493 0.0480001 20.184C0.0480001 16.9413 0.634667 14.0827 1.808 11.608C3.00267 9.13333 4.61333 7.224 6.64 5.88C8.688 4.536 10.9493 3.864 13.424 3.864C15.3227 3.864 17.0293 4.29067 18.544 5.144C20.08 5.99733 21.296 7.256 22.192 8.92C23.088 10.5627 23.536 12.536 23.536 14.84C23.536 17.528 23.1307 19.9493 22.32 22.104C21.5093 24.2587 20.3893 26.0507 18.96 27.48C17.5307 28.9093 15.888 29.9227 14.032 30.52C14.5653 30.8187 15.024 31.256 15.408 31.832C15.8133 32.408 16.24 33.24 16.688 34.328C17.1787 35.5227 17.7013 36.376 18.256 36.888C18.832 37.4 19.536 37.656 20.368 37.656C21.072 37.656 21.7547 37.4107 22.416 36.92C23.0773 36.4507 23.824 35.672 24.656 34.584C24.912 34.2427 25.2 34.072 25.52 34.072ZM10.48 27.384C12.144 27.384 13.6053 26.872 14.864 25.848C16.144 24.824 17.1253 23.4053 17.808 21.592C18.4907 19.7573 18.832 17.688 18.832 15.384C18.832 12.8453 18.2987 10.9253 17.232 9.624C16.1653 8.30133 14.7893 7.64 13.104 7.64C11.4827 7.64 10.032 8.16267 8.752 9.208C7.49333 10.232 6.512 11.6507 5.808 13.464C5.104 15.2773 4.752 17.336 4.752 19.64C4.752 22.1787 5.28533 24.1093 6.352 25.432C7.41867 26.7333 8.79467 27.384 10.48 27.384ZM28.6125 31.16C27.6525 31.16 26.8632 30.7227 26.2445 29.848C25.6472 28.952 25.3485 27.8427 25.3485 26.52C25.3485 24.92 25.4552 23.4587 25.6685 22.136C25.8818 20.792 26.2338 19.3733 26.7245 17.88C26.9378 17.24 27.2365 16.7813 27.6205 16.504C28.0045 16.2267 28.6125 16.088 29.4445 16.088C29.9138 16.088 30.2338 16.1627 30.4045 16.312C30.5965 16.4613 30.6925 16.6853 30.6925 16.984C30.6925 17.1547 30.5752 17.7307 30.3405 18.712C30.1272 19.5013 29.9565 20.216 29.8285 20.856C29.4018 23.096 29.1885 24.5893 29.1885 25.336C29.1885 25.784 29.2418 26.104 29.3485 26.296C29.4552 26.4667 29.6258 26.552 29.8605 26.552C30.1805 26.552 30.5752 26.232 31.0445 25.592C31.5352 24.952 32.0472 23.9813 32.5805 22.68C33.1352 21.3787 33.6685 19.7787 34.1805 17.88C34.3512 17.24 34.6072 16.7813 34.9485 16.504C35.3112 16.2267 35.8445 16.088 36.5485 16.088C37.0392 16.088 37.3805 16.152 37.5725 16.28C37.7645 16.3867 37.8605 16.6 37.8605 16.92C37.8605 17.4533 37.5938 18.9147 37.0605 21.304C36.4632 24.0347 36.1645 25.72 36.1645 26.36C36.1645 26.7653 36.2498 27.0853 36.4205 27.32C36.5912 27.5333 36.8152 27.64 37.0925 27.64C37.5192 27.64 38.0205 27.384 38.5965 26.872C39.1938 26.3387 39.9832 25.4853 40.9645 24.312C41.2205 24.0133 41.5085 23.864 41.8285 23.864C42.1058 23.864 42.3192 23.992 42.4685 24.248C42.6392 24.504 42.7245 24.856 42.7245 25.304C42.7245 26.1573 42.5218 26.8187 42.1165 27.288C41.1992 28.4187 40.2072 29.3467 39.1405 30.072C38.0952 30.7973 36.9005 31.16 35.5565 31.16C34.5325 31.16 33.7752 30.7653 33.2845 29.976C32.8152 29.1867 32.5805 28.0773 32.5805 26.648C32.2178 28.0987 31.6738 29.2187 30.9485 30.008C30.2232 30.776 29.4445 31.16 28.6125 31.16ZM44.3218 13.976C43.4258 13.976 42.7538 13.7733 42.3058 13.368C41.8578 12.9413 41.6338 12.3547 41.6338 11.608C41.6338 10.8613 41.9218 10.2427 42.4978 9.752C43.0951 9.24 43.8311 8.984 44.7058 8.984C45.4951 8.984 46.1351 9.176 46.6258 9.56C47.1164 9.944 47.3618 10.488 47.3618 11.192C47.3618 12.0453 47.0844 12.728 46.5298 13.24C45.9751 13.7307 45.2391 13.976 44.3218 13.976ZM44.0658 31.16C42.6791 31.16 41.6658 30.6693 41.0258 29.688C40.4071 28.7067 40.0978 27.4053 40.0978 25.784C40.0978 24.824 40.2151 23.5973 40.4498 22.104C40.7058 20.5893 41.0258 19.1813 41.4098 17.88C41.6018 17.1973 41.8578 16.728 42.1778 16.472C42.4978 16.216 43.0098 16.088 43.7138 16.088C44.8018 16.088 45.3458 16.4507 45.3458 17.176C45.3458 17.7093 45.1431 18.9467 44.7378 20.888C44.2258 23.2347 43.9698 24.824 43.9698 25.656C43.9698 26.296 44.0551 26.7867 44.2258 27.128C44.3964 27.4693 44.6844 27.64 45.0898 27.64C45.4738 27.64 45.9538 27.3733 46.5298 26.84C47.1058 26.3067 47.8738 25.464 48.8338 24.312C49.0898 24.0133 49.3778 23.864 49.6978 23.864C49.9751 23.864 50.1884 23.992 50.3378 24.248C50.5084 24.504 50.5938 24.856 50.5938 25.304C50.5938 26.1573 50.3911 26.8187 49.9858 27.288C47.8738 29.8693 45.9004 31.16 44.0658 31.16ZM64.1573 21.272C64.2213 21.2507 64.3279 21.24 64.4773 21.24C64.7973 21.24 65.0426 21.3467 65.2133 21.56C65.3839 21.7733 65.4693 22.0613 65.4693 22.424C65.4693 23.0853 65.3413 23.608 65.0853 23.992C64.8293 24.3547 64.4453 24.6213 63.9333 24.792C62.9519 25.112 61.9066 25.272 60.7973 25.272C59.8586 25.272 58.9733 25.144 58.1413 24.888C57.5226 25.8907 56.8399 26.9253 56.0933 27.992C55.2399 29.208 54.5039 30.04 53.8853 30.488C53.2666 30.936 52.5626 31.16 51.7733 31.16C50.8986 31.16 50.2053 30.8187 49.6933 30.136C49.2026 29.4533 48.8933 28.376 48.7653 26.904C48.5093 23.9173 48.3813 21.304 48.3813 19.064V17.944C48.4026 17.24 48.5946 16.7493 48.9573 16.472C49.3199 16.1947 49.8639 16.056 50.5893 16.056C51.1439 16.056 51.5493 16.184 51.8053 16.44C52.0826 16.6747 52.2213 17.08 52.2213 17.656C52.2213 20.1093 52.3706 23.2987 52.6693 27.224C53.9493 25.3253 54.9093 23.8107 55.5493 22.68C55.2293 22.0613 55.0693 21.3253 55.0693 20.472C55.0693 19.7467 55.2293 19.0427 55.5493 18.36C55.8693 17.6773 56.3066 17.1227 56.8613 16.696C57.4159 16.2693 58.0453 16.056 58.7493 16.056C59.3679 16.056 59.8693 16.28 60.2533 16.728C60.6373 17.1547 60.8293 17.784 60.8293 18.616C60.8293 19.576 60.5733 20.6747 60.0613 21.912C60.8719 21.8693 61.9493 21.7093 63.2933 21.432L64.1573 21.272ZM76.9643 23.864C77.2416 23.864 77.4549 23.992 77.6042 24.248C77.7749 24.504 77.8603 24.856 77.8603 25.304C77.8603 26.1573 77.6576 26.8187 77.2523 27.288C76.4629 28.248 75.3429 29.1333 73.8923 29.944C72.4629 30.7547 70.9269 31.16 69.2843 31.16C67.0443 31.16 65.3056 30.552 64.0683 29.336C62.8309 28.12 62.2122 26.456 62.2122 24.344C62.2122 22.872 62.5216 21.5067 63.1403 20.248C63.7589 18.968 64.6123 17.9547 65.7003 17.208C66.8096 16.4613 68.0576 16.088 69.4443 16.088C70.6816 16.088 71.6736 16.4613 72.4203 17.208C73.1669 17.9333 73.5403 18.9253 73.5403 20.184C73.5403 21.656 73.0069 22.9253 71.9403 23.992C70.8949 25.0373 69.1136 25.8693 66.5963 26.488C67.1296 27.4693 68.1429 27.96 69.6363 27.96C70.5963 27.96 71.6843 27.6293 72.9003 26.968C74.1376 26.2853 75.2043 25.4 76.1003 24.312C76.3563 24.0133 76.6443 23.864 76.9643 23.864ZM68.9003 19.224C68.1109 19.224 67.4389 19.6827 66.8843 20.6C66.3509 21.5173 66.0843 22.6267 66.0843 23.928V23.992C67.3429 23.6933 68.3349 23.2453 69.0603 22.648C69.7856 22.0507 70.1483 21.3573 70.1483 20.568C70.1483 20.1627 70.0309 19.8427 69.7963 19.608C69.5829 19.352 69.2843 19.224 68.9003 19.224ZM77.5268 31.16C76.7161 31.16 76.1401 30.7333 75.7988 29.88C75.4788 29.0267 75.3188 27.6613 75.3188 25.784C75.3188 23.0107 75.7134 20.376 76.5028 17.88C76.6948 17.2613 77.0041 16.8133 77.4308 16.536C77.8788 16.2373 78.4974 16.088 79.2868 16.088C79.7134 16.088 80.0121 16.1413 80.1828 16.248C80.3534 16.3547 80.4388 16.5573 80.4388 16.856C80.4388 17.1973 80.2788 17.9653 79.9588 19.16C79.7454 20.0133 79.5748 20.76 79.4468 21.4C79.3188 22.04 79.2121 22.8293 79.1268 23.768C79.8308 21.9333 80.6201 20.44 81.4948 19.288C82.3694 18.136 83.2228 17.3147 84.0548 16.824C84.9081 16.3333 85.6868 16.088 86.3908 16.088C87.7774 16.088 88.4708 16.7813 88.4708 18.168C88.4708 18.4453 88.3748 19.1173 88.1828 20.184C88.0121 21.0373 87.9268 21.5707 87.9268 21.784C87.9268 22.5307 88.1934 22.904 88.7268 22.904C89.3241 22.904 90.0921 22.4347 91.0308 21.496C91.3081 21.2187 91.5961 21.08 91.8948 21.08C92.1721 21.08 92.3854 21.208 92.5347 21.464C92.7054 21.6987 92.7908 22.0187 92.7908 22.424C92.7908 23.2133 92.5774 23.832 92.1508 24.28C91.5534 24.8987 90.8494 25.432 90.0388 25.88C89.2494 26.3067 88.4068 26.52 87.5108 26.52C86.3801 26.52 85.5161 26.232 84.9188 25.656C84.3428 25.08 84.0548 24.3013 84.0548 23.32C84.0548 23 84.0868 22.68 84.1508 22.36C84.1934 21.9333 84.2148 21.6453 84.2148 21.496C84.2148 21.1547 84.0974 20.984 83.8628 20.984C83.5428 20.984 83.1161 21.3467 82.5828 22.072C82.0708 22.776 81.5588 23.7147 81.0468 24.888C80.5348 26.0613 80.1188 27.2987 79.7988 28.6C79.5641 29.6027 79.2868 30.2853 78.9668 30.648C78.6681 30.9893 78.1881 31.16 77.5268 31.16ZM106.841 21.176C107.119 21.176 107.332 21.3147 107.481 21.592C107.631 21.8693 107.705 22.2213 107.705 22.648C107.705 23.1813 107.631 23.5973 107.481 23.896C107.332 24.1733 107.097 24.3653 106.777 24.472C105.497 24.92 104.089 25.176 102.553 25.24C102.127 27.0107 101.316 28.44 100.121 29.528C98.9479 30.616 97.6466 31.16 96.2173 31.16C94.0626 31.16 92.4946 30.3387 91.5133 28.696C90.5319 27.0533 90.0413 24.6747 90.0413 21.56C90.0413 18.808 90.3826 15.8213 91.0653 12.6C91.7479 9.35733 92.7399 6.60533 94.0413 4.344C95.3639 2.06133 96.9319 0.919998 98.7453 0.919998C99.7266 0.919998 100.516 1.34667 101.113 2.2C101.711 3.032 102.009 4.12 102.009 5.464C102.009 7.21333 101.679 8.952 101.017 10.68C100.356 12.408 99.2573 14.2213 97.7213 16.12C99.1506 16.2267 100.313 16.824 101.209 17.912C102.105 18.9787 102.639 20.3013 102.809 21.88C103.812 21.816 105.007 21.6027 106.393 21.24C106.521 21.1973 106.671 21.176 106.841 21.176ZM98.0093 4.088C97.5826 4.088 97.1133 4.728 96.6013 6.008C96.1106 7.26667 95.6519 8.984 95.2253 11.16C94.7986 13.336 94.4786 15.7147 94.2653 18.296C95.6733 15.7147 96.7933 13.4427 97.6253 11.48C98.4786 9.496 98.9053 7.736 98.9053 6.2C98.9053 5.51733 98.8199 4.99467 98.6493 4.632C98.4999 4.26933 98.2866 4.088 98.0093 4.088ZM96.3453 27.768C97.0066 27.768 97.5933 27.4907 98.1053 26.936C98.6173 26.3813 98.9586 25.5813 99.1293 24.536C98.4679 24.088 97.9559 23.5013 97.5933 22.776C97.2519 22.0507 97.0813 21.2827 97.0813 20.472C97.0813 20.1733 97.1239 19.768 97.2093 19.256H97.1133C96.2386 19.256 95.5026 19.6933 94.9053 20.568C94.3293 21.4213 94.0413 22.5733 94.0413 24.024C94.0413 25.24 94.2653 26.168 94.7133 26.808C95.1826 27.448 95.7266 27.768 96.3453 27.768ZM117.07 23.864C117.348 23.864 117.561 23.992 117.71 24.248C117.881 24.504 117.966 24.856 117.966 25.304C117.966 26.1573 117.764 26.8187 117.358 27.288C116.441 28.4187 115.438 29.3467 114.35 30.072C113.284 30.7973 112.068 31.16 110.702 31.16C108.825 31.16 107.428 30.3067 106.51 28.6C105.614 26.8933 105.166 24.6853 105.166 21.976C105.166 19.3733 105.497 16.408 106.158 13.08C106.841 9.752 107.833 6.89333 109.134 4.504C110.457 2.11466 112.025 0.919998 113.838 0.919998C114.862 0.919998 115.662 1.4 116.238 2.36C116.836 3.29867 117.134 4.65333 117.134 6.424C117.134 8.96267 116.43 11.9067 115.022 15.256C113.614 18.6053 111.705 21.9227 109.294 25.208C109.444 26.0827 109.689 26.712 110.03 27.096C110.372 27.4587 110.82 27.64 111.374 27.64C112.249 27.64 113.017 27.3947 113.678 26.904C114.34 26.392 115.182 25.528 116.206 24.312C116.462 24.0133 116.75 23.864 117.07 23.864ZM113.134 4.088C112.644 4.088 112.089 4.97333 111.47 6.744C110.852 8.51467 110.308 10.712 109.838 13.336C109.369 15.96 109.113 18.4773 109.07 20.888C110.585 18.392 111.79 15.896 112.686 13.4C113.582 10.8827 114.03 8.58933 114.03 6.52C114.03 4.89867 113.732 4.088 113.134 4.088ZM119.572 13.976C118.676 13.976 118.004 13.7733 117.556 13.368C117.108 12.9413 116.884 12.3547 116.884 11.608C116.884 10.8613 117.172 10.2427 117.748 9.752C118.345 9.24 119.081 8.984 119.956 8.984C120.745 8.984 121.385 9.176 121.876 9.56C122.366 9.944 122.612 10.488 122.612 11.192C122.612 12.0453 122.334 12.728 121.78 13.24C121.225 13.7307 120.489 13.976 119.572 13.976ZM119.316 31.16C117.929 31.16 116.916 30.6693 116.276 29.688C115.657 28.7067 115.348 27.4053 115.348 25.784C115.348 24.824 115.465 23.5973 115.7 22.104C115.956 20.5893 116.276 19.1813 116.66 17.88C116.852 17.1973 117.108 16.728 117.428 16.472C117.748 16.216 118.26 16.088 118.964 16.088C120.052 16.088 120.596 16.4507 120.596 17.176C120.596 17.7093 120.393 18.9467 119.988 20.888C119.476 23.2347 119.22 24.824 119.22 25.656C119.22 26.296 119.305 26.7867 119.476 27.128C119.646 27.4693 119.934 27.64 120.34 27.64C120.724 27.64 121.204 27.3733 121.78 26.84C122.356 26.3067 123.124 25.464 124.084 24.312C124.34 24.0133 124.628 23.864 124.948 23.864C125.225 23.864 125.438 23.992 125.588 24.248C125.758 24.504 125.844 24.856 125.844 25.304C125.844 26.1573 125.641 26.8187 125.236 27.288C123.124 29.8693 121.15 31.16 119.316 31.16ZM129.207 31.864C128.097 31.864 127.244 31.608 126.647 31.096C126.071 30.584 125.783 30.008 125.783 29.368C125.783 28.8133 125.985 28.3333 126.391 27.928C126.796 27.5227 127.393 27.32 128.183 27.32C128.46 27.32 128.78 27.352 129.143 27.416C129.527 27.4587 129.815 27.4907 130.007 27.512C129.985 26.9573 129.857 26.4347 129.623 25.944C129.409 25.4533 129.132 24.984 128.791 24.536C128.449 24.0667 128.129 23.6613 127.831 23.32C127.169 24.5787 126.508 25.624 125.847 26.456C125.207 27.288 124.503 28.0773 123.735 28.824C123.351 29.208 122.945 29.4 122.519 29.4C122.177 29.4 121.9 29.2827 121.687 29.048C121.473 28.792 121.367 28.4827 121.367 28.12C121.367 27.6933 121.516 27.2987 121.815 26.936L122.231 26.424C123.404 24.9733 124.289 23.7787 124.887 22.84C125.249 22.2213 125.676 21.4 126.167 20.376C126.657 19.3307 127.137 18.2533 127.607 17.144C128.012 16.2053 128.855 15.736 130.135 15.736C130.732 15.736 131.148 15.7893 131.383 15.896C131.617 16.0027 131.735 16.1733 131.735 16.408C131.735 16.536 131.692 16.7387 131.607 17.016C131.521 17.2933 131.404 17.5707 131.255 17.848C130.871 18.616 130.679 19.2667 130.679 19.8C130.679 20.12 130.785 20.472 130.999 20.856C131.233 21.24 131.585 21.72 132.055 22.296C132.737 23.192 133.249 23.96 133.591 24.6C133.953 25.2187 134.135 25.9013 134.135 26.648C134.135 26.8613 134.113 27.16 134.071 27.544C135.116 27.1387 136.343 26.0613 137.751 24.312C138.007 24.0133 138.295 23.864 138.615 23.864C138.892 23.864 139.105 23.992 139.255 24.248C139.425 24.504 139.511 24.856 139.511 25.304C139.511 26.1147 139.308 26.776 138.903 27.288C137.836 28.6107 136.812 29.5173 135.831 30.008C134.871 30.4773 133.676 30.7333 132.247 30.776C131.393 31.5013 130.38 31.864 129.207 31.864ZM142.863 31.864C141.754 31.864 140.9 31.608 140.303 31.096C139.727 30.584 139.439 30.008 139.439 29.368C139.439 28.8133 139.642 28.3333 140.047 27.928C140.452 27.5227 141.05 27.32 141.839 27.32C142.116 27.32 142.436 27.352 142.799 27.416C143.183 27.4587 143.471 27.4907 143.663 27.512C143.642 26.9573 143.514 26.4347 143.279 25.944C143.066 25.4533 142.788 24.984 142.447 24.536C142.106 24.0667 141.786 23.6613 141.487 23.32C140.826 24.5787 140.164 25.624 139.503 26.456C138.863 27.288 138.159 28.0773 137.391 28.824C137.007 29.208 136.602 29.4 136.175 29.4C135.834 29.4 135.556 29.2827 135.343 29.048C135.13 28.792 135.023 28.4827 135.023 28.12C135.023 27.6933 135.172 27.2987 135.471 26.936L135.887 26.424C137.06 24.9733 137.946 23.7787 138.543 22.84C138.927 22.2213 139.311 21.4853 139.695 20.632C140.1 19.7787 140.623 18.616 141.263 17.144C141.668 16.2053 142.511 15.736 143.791 15.736C144.388 15.736 144.804 15.7893 145.039 15.896C145.274 16.0027 145.391 16.1733 145.391 16.408C145.391 16.536 145.348 16.7387 145.263 17.016C145.178 17.2933 145.06 17.5707 144.911 17.848C144.527 18.616 144.335 19.2667 144.335 19.8C144.335 20.12 144.442 20.472 144.655 20.856C144.89 21.24 145.242 21.72 145.711 22.296C146.394 23.192 146.906 23.96 147.247 24.6C147.61 25.2187 147.791 25.9013 147.791 26.648C147.791 27.544 147.578 28.3973 147.151 29.208C146.746 29.9973 146.17 30.6373 145.423 31.128C144.676 31.6187 143.823 31.864 142.863 31.864Z" fill="black"/>
</svg>
