<svg width="146" height="146" viewBox="0 0 146 146" fill="none" xmlns="http://www.w3.org/2000/svg">
<g opacity="0.8">
<path fill-rule="evenodd" clip-rule="evenodd" d="M72.7747 12.1291C106.268 12.1291 133.42 39.2811 133.42 72.7747C133.42 106.268 106.268 133.42 72.7747 133.42C39.2811 133.42 12.1291 106.268 12.1291 72.7747C12.1291 39.2811 39.2811 12.1291 72.7747 12.1291Z" fill="black" fill-opacity="0.6"/>
<path fill-rule="evenodd" clip-rule="evenodd" d="M91.2722 75.6062C86.8512 80.3729 74.8191 88.4388 68.6635 91.0284C67.6811 91.4408 65.1764 92.3141 64.6367 92.3262C63.4905 92.3626 62.3867 91.7197 61.853 90.6888C61.6468 90.2885 61.0404 87.6747 60.8463 86.5103C60.2702 82.9686 59.973 77.468 59.9791 71.9371C59.973 66.1334 60.2945 60.372 60.9373 56.8667C61.1071 55.9206 61.6044 53.7435 61.7499 53.3917C62.0229 52.7367 62.5201 52.2213 63.1205 51.8998C63.5814 51.6512 64.1091 51.5178 64.6367 51.536C65.1764 51.5481 67.3718 52.3183 68.1238 52.6155C74.0549 54.92 86.6025 63.2769 91.2116 68.1892C91.624 68.632 92.758 69.8206 92.946 70.0632C93.3766 70.609 93.5889 71.27 93.5889 71.9371C93.5889 72.5557 93.4009 73.1864 93.0127 73.7141C92.8126 73.987 91.6543 75.1999 91.2722 75.6062Z" fill="white" stroke="white" stroke-width="9.09684" stroke-linecap="round" stroke-linejoin="round"/>
</g>
</svg>
