<svg width="148" height="63" viewBox="0 0 148 63" fill="none" xmlns="http://www.w3.org/2000/svg">
<path d="M25.472 33.152C25.6853 33.152 25.8453 33.2587 25.952 33.472C26.08 33.7067 26.144 34.0053 26.144 34.368C26.144 35.0507 25.9627 35.7227 25.6 36.384C24.8747 37.7067 23.9147 38.72 22.72 39.424C21.5467 40.1493 20.3413 40.512 19.104 40.512C17.8453 40.512 16.7893 40.3093 15.936 39.904C15.0827 39.52 14.3573 38.9333 13.76 38.144C13.1627 37.376 12.5867 36.352 12.032 35.072C11.456 33.7493 10.976 32.7573 10.592 32.096C10.2293 31.456 9.84533 30.9867 9.44 30.688C9.03467 30.3893 8.512 30.176 7.872 30.048C5.504 29.5787 3.59467 28.4053 2.144 26.528C0.714667 24.6507 0 22.2293 0 19.264C0 16.0213 0.586667 13.1627 1.76 10.688C2.95467 8.21333 4.56533 6.304 6.592 4.96C8.64 3.616 10.9013 2.944 13.376 2.944C15.2747 2.944 16.9813 3.37067 18.496 4.224C20.032 5.07733 21.248 6.336 22.144 8C23.04 9.64267 23.488 11.616 23.488 13.92C23.488 16.608 23.0827 19.0293 22.272 21.184C21.4613 23.3387 20.3413 25.1307 18.912 26.56C17.4827 27.9893 15.84 29.0027 13.984 29.6C14.5173 29.8987 14.976 30.336 15.36 30.912C15.7653 31.488 16.192 32.32 16.64 33.408C17.1307 34.6027 17.6533 35.456 18.208 35.968C18.784 36.48 19.488 36.736 20.32 36.736C21.024 36.736 21.7067 36.4907 22.368 36C23.0293 35.5307 23.776 34.752 24.608 33.664C24.864 33.3227 25.152 33.152 25.472 33.152ZM10.432 26.464C12.096 26.464 13.5573 25.952 14.816 24.928C16.096 23.904 17.0773 22.4853 17.76 20.672C18.4427 18.8373 18.784 16.768 18.784 14.464C18.784 11.9253 18.2507 10.0053 17.184 8.704C16.1173 7.38133 14.7413 6.72 13.056 6.72C11.4347 6.72 9.984 7.24267 8.704 8.288C7.44533 9.312 6.464 10.7307 5.76 12.544C5.056 14.3573 4.704 16.416 4.704 18.72C4.704 21.2587 5.23733 23.1893 6.304 24.512C7.37067 25.8133 8.74667 26.464 10.432 26.464Z" fill="white"/>
<path d="M28.5645 30.24C27.6045 30.24 26.8152 29.8027 26.1965 28.928C25.5992 28.032 25.3005 26.9227 25.3005 25.6C25.3005 24 25.4072 22.5387 25.6205 21.216C25.8338 19.872 26.1858 18.4533 26.6765 16.96C26.8898 16.32 27.1885 15.8613 27.5725 15.584C27.9565 15.3067 28.5645 15.168 29.3965 15.168C29.8658 15.168 30.1858 15.2427 30.3565 15.392C30.5485 15.5413 30.6445 15.7653 30.6445 16.064C30.6445 16.2347 30.5272 16.8107 30.2925 17.792C30.0792 18.5813 29.9085 19.296 29.7805 19.936C29.3538 22.176 29.1405 23.6693 29.1405 24.416C29.1405 24.864 29.1938 25.184 29.3005 25.376C29.4072 25.5467 29.5778 25.632 29.8125 25.632C30.1325 25.632 30.5272 25.312 30.9965 24.672C31.4872 24.032 31.9992 23.0613 32.5325 21.76C33.0872 20.4587 33.6205 18.8587 34.1325 16.96C34.3032 16.32 34.5592 15.8613 34.9005 15.584C35.2632 15.3067 35.7965 15.168 36.5005 15.168C36.9912 15.168 37.3325 15.232 37.5245 15.36C37.7165 15.4667 37.8125 15.68 37.8125 16C37.8125 16.5333 37.5458 17.9947 37.0125 20.384C36.4152 23.1147 36.1165 24.8 36.1165 25.44C36.1165 25.8453 36.2018 26.1653 36.3725 26.4C36.5432 26.6133 36.7672 26.72 37.0445 26.72C37.4712 26.72 37.9725 26.464 38.5485 25.952C39.1458 25.4187 39.9352 24.5653 40.9165 23.392C41.1725 23.0933 41.4605 22.944 41.7805 22.944C42.0578 22.944 42.2712 23.072 42.4205 23.328C42.5912 23.584 42.6765 23.936 42.6765 24.384C42.6765 25.2373 42.4738 25.8987 42.0685 26.368C41.1512 27.4987 40.1592 28.4267 39.0925 29.152C38.0472 29.8773 36.8525 30.24 35.5085 30.24C34.4845 30.24 33.7272 29.8453 33.2365 29.056C32.7672 28.2667 32.5325 27.1573 32.5325 25.728C32.1698 27.1787 31.6258 28.2987 30.9005 29.088C30.1752 29.856 29.3965 30.24 28.5645 30.24Z" fill="white"/>
<path d="M44.2738 13.056C43.3778 13.056 42.7058 12.8533 42.2578 12.448C41.8098 12.0213 41.5858 11.4347 41.5858 10.688C41.5858 9.94133 41.8737 9.32267 42.4497 8.832C43.0471 8.32 43.7831 8.064 44.6577 8.064C45.4471 8.064 46.0871 8.256 46.5778 8.64C47.0684 9.024 47.3138 9.568 47.3138 10.272C47.3138 11.1253 47.0364 11.808 46.4818 12.32C45.9271 12.8107 45.1911 13.056 44.2738 13.056ZM44.0177 30.24C42.6311 30.24 41.6177 29.7493 40.9777 28.768C40.3591 27.7867 40.0498 26.4853 40.0498 24.864C40.0498 23.904 40.1671 22.6773 40.4017 21.184C40.6577 19.6693 40.9778 18.2613 41.3618 16.96C41.5538 16.2773 41.8097 15.808 42.1297 15.552C42.4497 15.296 42.9618 15.168 43.6657 15.168C44.7537 15.168 45.2977 15.5307 45.2977 16.256C45.2977 16.7893 45.0951 18.0267 44.6898 19.968C44.1777 22.3147 43.9217 23.904 43.9217 24.736C43.9217 25.376 44.0071 25.8667 44.1777 26.208C44.3484 26.5493 44.6364 26.72 45.0418 26.72C45.4258 26.72 45.9058 26.4533 46.4818 25.92C47.0578 25.3867 47.8258 24.544 48.7858 23.392C49.0418 23.0933 49.3298 22.944 49.6497 22.944C49.9271 22.944 50.1404 23.072 50.2897 23.328C50.4604 23.584 50.5457 23.936 50.5457 24.384C50.5457 25.2373 50.3431 25.8987 49.9378 26.368C47.8258 28.9493 45.8524 30.24 44.0177 30.24Z" fill="white"/>
<path d="M64.1093 20.352C64.1732 20.3307 64.2799 20.32 64.4293 20.32C64.7493 20.32 64.9946 20.4267 65.1653 20.64C65.3359 20.8533 65.4212 21.1413 65.4212 21.504C65.4212 22.1653 65.2933 22.688 65.0373 23.072C64.7812 23.4347 64.3972 23.7013 63.8853 23.872C62.9039 24.192 61.8586 24.352 60.7493 24.352C59.8106 24.352 58.9253 24.224 58.0933 23.968C57.4746 24.9707 56.7919 26.0053 56.0452 27.072C55.1919 28.288 54.4559 29.12 53.8372 29.568C53.2186 30.016 52.5146 30.24 51.7253 30.24C50.8506 30.24 50.1572 29.8987 49.6452 29.216C49.1546 28.5333 48.8452 27.456 48.7173 25.984C48.4613 22.9973 48.3332 20.384 48.3332 18.144V17.024C48.3546 16.32 48.5466 15.8293 48.9092 15.552C49.2719 15.2747 49.8159 15.136 50.5412 15.136C51.0959 15.136 51.5013 15.264 51.7573 15.52C52.0346 15.7547 52.1732 16.16 52.1732 16.736C52.1732 19.1893 52.3226 22.3787 52.6213 26.304C53.9012 24.4053 54.8613 22.8907 55.5013 21.76C55.1813 21.1413 55.0213 20.4053 55.0213 19.552C55.0213 18.8267 55.1813 18.1227 55.5013 17.44C55.8213 16.7573 56.2586 16.2027 56.8133 15.776C57.3679 15.3493 57.9973 15.136 58.7013 15.136C59.3199 15.136 59.8213 15.36 60.2052 15.808C60.5892 16.2347 60.7812 16.864 60.7812 17.696C60.7812 18.656 60.5253 19.7547 60.0133 20.992C60.8239 20.9493 61.9012 20.7893 63.2453 20.512L64.1093 20.352Z" fill="white"/>
<path d="M76.9163 22.944C77.1936 22.944 77.4069 23.072 77.5563 23.328C77.7269 23.584 77.8122 23.936 77.8122 24.384C77.8122 25.2373 77.6096 25.8987 77.2043 26.368C76.4149 27.328 75.2949 28.2133 73.8443 29.024C72.4149 29.8347 70.8789 30.24 69.2363 30.24C66.9963 30.24 65.2576 29.632 64.0202 28.416C62.7829 27.2 62.1642 25.536 62.1642 23.424C62.1642 21.952 62.4736 20.5867 63.0923 19.328C63.7109 18.048 64.5643 17.0347 65.6523 16.288C66.7616 15.5413 68.0096 15.168 69.3962 15.168C70.6336 15.168 71.6256 15.5413 72.3723 16.288C73.1189 17.0133 73.4922 18.0053 73.4922 19.264C73.4922 20.736 72.9589 22.0053 71.8923 23.072C70.8469 24.1173 69.0656 24.9493 66.5482 25.568C67.0816 26.5493 68.0949 27.04 69.5882 27.04C70.5482 27.04 71.6362 26.7093 72.8522 26.048C74.0896 25.3653 75.1562 24.48 76.0523 23.392C76.3083 23.0933 76.5963 22.944 76.9163 22.944ZM68.8522 18.304C68.0629 18.304 67.3909 18.7627 66.8363 19.68C66.3029 20.5973 66.0362 21.7067 66.0362 23.008V23.072C67.2949 22.7733 68.2869 22.3253 69.0123 21.728C69.7376 21.1307 70.1003 20.4373 70.1003 19.648C70.1003 19.2427 69.9829 18.9227 69.7483 18.688C69.5349 18.432 69.2363 18.304 68.8522 18.304Z" fill="white"/>
<path d="M77.4788 30.24C76.6681 30.24 76.0921 29.8133 75.7507 28.96C75.4307 28.1067 75.2708 26.7413 75.2708 24.864C75.2708 22.0907 75.6654 19.456 76.4548 16.96C76.6468 16.3413 76.9561 15.8933 77.3828 15.616C77.8307 15.3173 78.4494 15.168 79.2387 15.168C79.6654 15.168 79.9641 15.2213 80.1348 15.328C80.3054 15.4347 80.3907 15.6373 80.3907 15.936C80.3907 16.2773 80.2308 17.0453 79.9108 18.24C79.6974 19.0933 79.5267 19.84 79.3988 20.48C79.2708 21.12 79.1641 21.9093 79.0788 22.848C79.7828 21.0133 80.5721 19.52 81.4467 18.368C82.3214 17.216 83.1748 16.3947 84.0068 15.904C84.8601 15.4133 85.6387 15.168 86.3428 15.168C87.7294 15.168 88.4228 15.8613 88.4228 17.248C88.4228 17.5253 88.3268 18.1973 88.1348 19.264C87.9641 20.1173 87.8788 20.6507 87.8788 20.864C87.8788 21.6107 88.1454 21.984 88.6787 21.984C89.2761 21.984 90.0441 21.5147 90.9827 20.576C91.2601 20.2987 91.5481 20.16 91.8467 20.16C92.1241 20.16 92.3374 20.288 92.4867 20.544C92.6574 20.7787 92.7428 21.0987 92.7428 21.504C92.7428 22.2933 92.5294 22.912 92.1028 23.36C91.5054 23.9787 90.8014 24.512 89.9908 24.96C89.2014 25.3867 88.3587 25.6 87.4628 25.6C86.3321 25.6 85.4681 25.312 84.8708 24.736C84.2948 24.16 84.0068 23.3813 84.0068 22.4C84.0068 22.08 84.0387 21.76 84.1028 21.44C84.1454 21.0133 84.1667 20.7253 84.1667 20.576C84.1667 20.2347 84.0494 20.064 83.8148 20.064C83.4948 20.064 83.0681 20.4267 82.5348 21.152C82.0228 21.856 81.5107 22.7947 80.9987 23.968C80.4867 25.1413 80.0707 26.3787 79.7507 27.68C79.5161 28.6827 79.2387 29.3653 78.9187 29.728C78.6201 30.0693 78.1401 30.24 77.4788 30.24Z" fill="white"/>
<path d="M106.793 20.256C107.071 20.256 107.284 20.3947 107.433 20.672C107.583 20.9493 107.657 21.3013 107.657 21.728C107.657 22.2613 107.583 22.6773 107.433 22.976C107.284 23.2533 107.049 23.4453 106.729 23.552C105.449 24 104.041 24.256 102.505 24.32C102.079 26.0907 101.268 27.52 100.073 28.608C98.8999 29.696 97.5986 30.24 96.1693 30.24C94.0146 30.24 92.4466 29.4187 91.4652 27.776C90.4839 26.1333 89.9932 23.7547 89.9932 20.64C89.9932 17.888 90.3346 14.9013 91.0173 11.68C91.6999 8.43733 92.6919 5.68533 93.9932 3.424C95.3159 1.14133 96.8839 0 98.6973 0C99.6786 0 100.468 0.426667 101.065 1.28C101.663 2.112 101.961 3.2 101.961 4.544C101.961 6.29333 101.631 8.032 100.969 9.76C100.308 11.488 99.2093 13.3013 97.6732 15.2C99.1026 15.3067 100.265 15.904 101.161 16.992C102.057 18.0587 102.591 19.3813 102.761 20.96C103.764 20.896 104.959 20.6827 106.345 20.32C106.473 20.2773 106.623 20.256 106.793 20.256ZM97.9613 3.168C97.5346 3.168 97.0653 3.808 96.5533 5.088C96.0626 6.34667 95.6039 8.064 95.1773 10.24C94.7506 12.416 94.4306 14.7947 94.2172 17.376C95.6252 14.7947 96.7452 12.5227 97.5772 10.56C98.4306 8.576 98.8573 6.816 98.8573 5.28C98.8573 4.59733 98.7719 4.07467 98.6012 3.712C98.4519 3.34933 98.2386 3.168 97.9613 3.168ZM96.2972 26.848C96.9586 26.848 97.5452 26.5707 98.0573 26.016C98.5693 25.4613 98.9106 24.6613 99.0813 23.616C98.4199 23.168 97.9079 22.5813 97.5452 21.856C97.2039 21.1307 97.0332 20.3627 97.0332 19.552C97.0332 19.2533 97.0759 18.848 97.1612 18.336H97.0653C96.1906 18.336 95.4546 18.7733 94.8573 19.648C94.2812 20.5013 93.9932 21.6533 93.9932 23.104C93.9932 24.32 94.2173 25.248 94.6653 25.888C95.1346 26.528 95.6786 26.848 96.2972 26.848Z" fill="white"/>
<path d="M117.022 22.944C117.3 22.944 117.513 23.072 117.662 23.328C117.833 23.584 117.918 23.936 117.918 24.384C117.918 25.2373 117.716 25.8987 117.31 26.368C116.393 27.4987 115.39 28.4267 114.302 29.152C113.236 29.8773 112.02 30.24 110.654 30.24C108.777 30.24 107.38 29.3867 106.462 27.68C105.566 25.9733 105.118 23.7653 105.118 21.056C105.118 18.4533 105.449 15.488 106.11 12.16C106.793 8.832 107.785 5.97333 109.086 3.584C110.409 1.19467 111.977 0 113.79 0C114.814 0 115.614 0.48 116.19 1.44C116.788 2.37867 117.086 3.73334 117.086 5.504C117.086 8.04267 116.382 10.9867 114.974 14.336C113.566 17.6853 111.657 21.0027 109.246 24.288C109.396 25.1627 109.641 25.792 109.982 26.176C110.324 26.5387 110.772 26.72 111.326 26.72C112.201 26.72 112.969 26.4747 113.63 25.984C114.292 25.472 115.134 24.608 116.158 23.392C116.414 23.0933 116.702 22.944 117.022 22.944ZM113.086 3.168C112.596 3.168 112.041 4.05333 111.422 5.824C110.804 7.59467 110.26 9.792 109.79 12.416C109.321 15.04 109.065 17.5573 109.022 19.968C110.537 17.472 111.742 14.976 112.638 12.48C113.534 9.96267 113.982 7.66933 113.982 5.6C113.982 3.97867 113.684 3.168 113.086 3.168Z" fill="white"/>
<path d="M119.524 13.056C118.628 13.056 117.956 12.8533 117.508 12.448C117.06 12.0213 116.836 11.4347 116.836 10.688C116.836 9.94133 117.124 9.32267 117.7 8.832C118.297 8.32 119.033 8.064 119.908 8.064C120.697 8.064 121.337 8.256 121.828 8.64C122.318 9.024 122.564 9.568 122.564 10.272C122.564 11.1253 122.286 11.808 121.732 12.32C121.177 12.8107 120.441 13.056 119.524 13.056ZM119.268 30.24C117.881 30.24 116.868 29.7493 116.228 28.768C115.609 27.7867 115.3 26.4853 115.3 24.864C115.3 23.904 115.417 22.6773 115.652 21.184C115.908 19.6693 116.228 18.2613 116.612 16.96C116.804 16.2773 117.06 15.808 117.38 15.552C117.7 15.296 118.212 15.168 118.916 15.168C120.004 15.168 120.548 15.5307 120.548 16.256C120.548 16.7893 120.345 18.0267 119.94 19.968C119.428 22.3147 119.172 23.904 119.172 24.736C119.172 25.376 119.257 25.8667 119.428 26.208C119.598 26.5493 119.886 26.72 120.292 26.72C120.676 26.72 121.156 26.4533 121.732 25.92C122.308 25.3867 123.076 24.544 124.036 23.392C124.292 23.0933 124.58 22.944 124.9 22.944C125.177 22.944 125.39 23.072 125.54 23.328C125.71 23.584 125.796 23.936 125.796 24.384C125.796 25.2373 125.593 25.8987 125.188 26.368C123.076 28.9493 121.102 30.24 119.268 30.24Z" fill="white"/>
<path d="M129.159 30.944C128.049 30.944 127.196 30.688 126.599 30.176C126.023 29.664 125.735 29.088 125.735 28.448C125.735 27.8933 125.937 27.4133 126.343 27.008C126.748 26.6027 127.345 26.4 128.135 26.4C128.412 26.4 128.732 26.432 129.095 26.496C129.479 26.5387 129.767 26.5707 129.959 26.592C129.937 26.0373 129.809 25.5147 129.575 25.024C129.361 24.5333 129.084 24.064 128.743 23.616C128.401 23.1467 128.081 22.7413 127.783 22.4C127.121 23.6587 126.46 24.704 125.799 25.536C125.159 26.368 124.455 27.1573 123.687 27.904C123.303 28.288 122.897 28.48 122.471 28.48C122.129 28.48 121.852 28.3627 121.639 28.128C121.425 27.872 121.319 27.5627 121.319 27.2C121.319 26.7733 121.468 26.3787 121.767 26.016L122.183 25.504C123.356 24.0533 124.241 22.8587 124.839 21.92C125.201 21.3013 125.628 20.48 126.119 19.456C126.609 18.4107 127.089 17.3333 127.559 16.224C127.964 15.2853 128.807 14.816 130.087 14.816C130.684 14.816 131.1 14.8693 131.335 14.976C131.569 15.0827 131.687 15.2533 131.687 15.488C131.687 15.616 131.644 15.8187 131.559 16.096C131.473 16.3733 131.356 16.6507 131.207 16.928C130.823 17.696 130.631 18.3467 130.631 18.88C130.631 19.2 130.737 19.552 130.951 19.936C131.185 20.32 131.537 20.8 132.007 21.376C132.689 22.272 133.201 23.04 133.543 23.68C133.905 24.2987 134.087 24.9813 134.087 25.728C134.087 25.9413 134.065 26.24 134.023 26.624C135.068 26.2187 136.295 25.1413 137.703 23.392C137.959 23.0933 138.247 22.944 138.567 22.944C138.844 22.944 139.057 23.072 139.207 23.328C139.377 23.584 139.463 23.936 139.463 24.384C139.463 25.1947 139.26 25.856 138.855 26.368C137.788 27.6907 136.764 28.5973 135.783 29.088C134.823 29.5573 133.628 29.8133 132.199 29.856C131.345 30.5813 130.332 30.944 129.159 30.944Z" fill="white"/>
<path d="M142.815 30.944C141.706 30.944 140.852 30.688 140.255 30.176C139.679 29.664 139.391 29.088 139.391 28.448C139.391 27.8933 139.594 27.4133 139.999 27.008C140.404 26.6027 141.002 26.4 141.791 26.4C142.068 26.4 142.388 26.432 142.751 26.496C143.135 26.5387 143.423 26.5707 143.615 26.592C143.594 26.0373 143.466 25.5147 143.231 25.024C143.018 24.5333 142.74 24.064 142.399 23.616C142.058 23.1467 141.738 22.7413 141.439 22.4C140.778 23.6587 140.116 24.704 139.455 25.536C138.815 26.368 138.111 27.1573 137.343 27.904C136.959 28.288 136.554 28.48 136.127 28.48C135.786 28.48 135.508 28.3627 135.295 28.128C135.082 27.872 134.975 27.5627 134.975 27.2C134.975 26.7733 135.124 26.3787 135.423 26.016L135.839 25.504C137.012 24.0533 137.898 22.8587 138.495 21.92C138.879 21.3013 139.263 20.5653 139.647 19.712C140.052 18.8587 140.575 17.696 141.215 16.224C141.62 15.2853 142.463 14.816 143.743 14.816C144.34 14.816 144.756 14.8693 144.991 14.976C145.226 15.0827 145.343 15.2533 145.343 15.488C145.343 15.616 145.3 15.8187 145.215 16.096C145.13 16.3733 145.012 16.6507 144.863 16.928C144.479 17.696 144.287 18.3467 144.287 18.88C144.287 19.2 144.394 19.552 144.607 19.936C144.842 20.32 145.194 20.8 145.663 21.376C146.346 22.272 146.858 23.04 147.199 23.68C147.562 24.2987 147.743 24.9813 147.743 25.728C147.743 26.624 147.53 27.4773 147.103 28.288C146.698 29.0773 146.122 29.7173 145.375 30.208C144.628 30.6987 143.775 30.944 142.815 30.944Z" fill="white"/>
<path d="M34 37H125V63H34V37Z" fill="#D90A0A"/>
<path d="M43.42 57.2C42.3134 57.2 41.3734 57 40.6 56.6C39.8267 56.2 39.1334 55.6133 38.52 54.84L40.08 53.28C40.4667 53.84 40.9267 54.28 41.46 54.6C41.9934 54.9067 42.6734 55.06 43.5 55.06C44.2734 55.06 44.8867 54.9 45.34 54.58C45.8067 54.26 46.04 53.82 46.04 53.26C46.04 52.7933 45.92 52.4133 45.68 52.12C45.44 51.8267 45.12 51.5867 44.72 51.4C44.3334 51.2 43.9 51.0267 43.42 50.88C42.9534 50.72 42.48 50.5467 42 50.36C41.5334 50.16 41.1 49.9133 40.7 49.62C40.3134 49.3267 40 48.9467 39.76 48.48C39.52 48.0133 39.4 47.42 39.4 46.7C39.4 45.8733 39.6 45.1733 40 44.6C40.4134 44.0133 40.9667 43.5667 41.66 43.26C42.3534 42.9533 43.1267 42.8 43.98 42.8C44.9 42.8 45.72 42.98 46.44 43.34C47.1734 43.7 47.7667 44.16 48.22 44.72L46.66 46.28C46.26 45.8267 45.84 45.4933 45.4 45.28C44.9734 45.0533 44.48 44.94 43.92 44.94C43.2267 44.94 42.68 45.08 42.28 45.36C41.8934 45.64 41.7 46.0333 41.7 46.54C41.7 46.9667 41.82 47.3133 42.06 47.58C42.3 47.8333 42.6134 48.0533 43 48.24C43.4 48.4133 43.8334 48.58 44.3 48.74C44.78 48.9 45.2534 49.08 45.72 49.28C46.2 49.48 46.6334 49.74 47.02 50.06C47.42 50.3667 47.74 50.7667 47.98 51.26C48.22 51.7533 48.34 52.3733 48.34 53.12C48.34 54.3733 47.8934 55.3667 47 56.1C46.12 56.8333 44.9267 57.2 43.42 57.2Z" fill="black"/>
<path d="M55.5478 57V45.1H57.8478V57H55.5478ZM50.9878 45.1V43H62.4078V45.1H50.9878Z" fill="black"/>
<path d="M71.6349 57.2C70.5815 57.2 69.6349 56.96 68.7949 56.48C67.9549 56 67.2882 55.3467 66.7949 54.52C66.3149 53.68 66.0749 52.7333 66.0749 51.68V43H68.3749V51.66C68.3749 52.34 68.5149 52.9333 68.7949 53.44C69.0882 53.9333 69.4815 54.32 69.9749 54.6C70.4682 54.8667 71.0215 55 71.6349 55C72.2615 55 72.8149 54.8667 73.2949 54.6C73.7749 54.32 74.1549 53.9333 74.4349 53.44C74.7149 52.9333 74.8549 52.3467 74.8549 51.68V43H77.1549V51.7C77.1549 52.7533 76.9149 53.6933 76.4349 54.52C75.9549 55.3467 75.3015 56 74.4749 56.48C73.6482 56.96 72.7015 57.2 71.6349 57.2Z" fill="black"/>
<path d="M84.3435 57V54.9H87.3035C88.2635 54.9 89.1035 54.6933 89.8235 54.28C90.5568 53.8667 91.1235 53.2933 91.5235 52.56C91.9368 51.8133 92.1435 50.9533 92.1435 49.98C92.1435 49.02 91.9368 48.1733 91.5235 47.44C91.1101 46.7067 90.5368 46.1333 89.8035 45.72C89.0835 45.3067 88.2501 45.1 87.3035 45.1H84.3435V43H87.3635C88.3768 43 89.3168 43.18 90.1835 43.54C91.0501 43.8867 91.8035 44.38 92.4435 45.02C93.0968 45.6467 93.6035 46.3867 93.9635 47.24C94.3235 48.08 94.5035 49 94.5035 50C94.5035 50.9867 94.3235 51.9067 93.9635 52.76C93.6035 53.6133 93.1035 54.36 92.4635 55C91.8235 55.6267 91.0701 56.12 90.2035 56.48C89.3368 56.8267 88.4035 57 87.4035 57H84.3435ZM82.0435 57V43H84.3435V57H82.0435Z" fill="black"/>
<path d="M98.8481 57V43H101.148V57H98.8481Z" fill="black"/>
<path d="M112.62 57.2C111.62 57.2 110.687 57.0133 109.82 56.64C108.954 56.2667 108.194 55.7533 107.54 55.1C106.887 54.4333 106.374 53.6667 106 52.8C105.64 51.92 105.46 50.98 105.46 49.98C105.46 48.98 105.64 48.0467 106 47.18C106.374 46.3133 106.88 45.5533 107.52 44.9C108.174 44.2333 108.927 43.72 109.78 43.36C110.647 42.9867 111.58 42.8 112.58 42.8C113.58 42.8 114.507 42.9867 115.36 43.36C116.227 43.72 116.987 44.2333 117.64 44.9C118.294 45.5533 118.8 46.32 119.16 47.2C119.534 48.0667 119.72 49 119.72 50C119.72 51 119.534 51.94 119.16 52.82C118.8 53.6867 118.294 54.4467 117.64 55.1C117 55.7533 116.247 56.2667 115.38 56.64C114.527 57.0133 113.607 57.2 112.62 57.2ZM112.58 55C113.527 55 114.354 54.7867 115.06 54.36C115.78 53.9333 116.34 53.3467 116.74 52.6C117.154 51.84 117.36 50.9667 117.36 49.98C117.36 49.2467 117.24 48.58 117 47.98C116.774 47.3667 116.447 46.84 116.02 46.4C115.594 45.9467 115.087 45.6 114.5 45.36C113.927 45.12 113.287 45 112.58 45C111.647 45 110.82 45.2133 110.1 45.64C109.394 46.0533 108.834 46.6333 108.42 47.38C108.02 48.1267 107.82 48.9933 107.82 49.98C107.82 50.7133 107.934 51.3933 108.16 52.02C108.4 52.6333 108.727 53.16 109.14 53.6C109.567 54.04 110.074 54.3867 110.66 54.64C111.247 54.88 111.887 55 112.58 55Z" fill="black"/>
</svg>
