<svg width="25" height="25" viewBox="0 0 25 25" fill="none" xmlns="http://www.w3.org/2000/svg">
<path fill-rule="evenodd" clip-rule="evenodd" d="M7.71844 5.05762C9.12305 4.93871 10.6285 4.86 12.15 4.86C13.6715 4.86 15.177 4.93871 16.5816 5.05762C18.273 5.2008 19.3675 5.29753 20.2047 5.49508C20.9668 5.67493 21.3918 5.91261 21.7575 6.28699C21.7976 6.32801 21.8541 6.3895 21.8916 6.43289C22.2143 6.80641 22.4264 7.27169 22.5472 8.15318C22.6765 9.09727 22.68 10.3298 22.68 12.1904C22.68 14.0296 22.6764 15.2445 22.5473 16.1763C22.4271 17.0434 22.2162 17.5059 21.8903 17.8826C21.8532 17.9254 21.7956 17.9881 21.756 18.0286C21.3855 18.4073 20.9638 18.6423 20.2206 18.8186C19.3999 19.0132 18.3291 19.1066 16.6662 19.2451C15.2596 19.3624 13.7306 19.44 12.15 19.44C10.5694 19.44 9.04045 19.3624 7.63376 19.2451C5.97087 19.1066 4.90012 19.0132 4.07942 18.8186C3.33616 18.6423 2.91454 18.4073 2.544 18.0286C2.50441 17.9881 2.44677 17.9254 2.40972 17.8826C2.08378 17.5059 1.87291 17.0434 1.75273 16.1763C1.62358 15.2445 1.62 14.0296 1.62 12.1904C1.62 10.3298 1.6235 9.09727 1.75283 8.15319C1.87359 7.27169 2.08565 6.80641 2.40838 6.43289C2.44587 6.3895 2.50238 6.32801 2.54245 6.28699C2.90822 5.91261 3.33318 5.67493 4.09529 5.49508C4.93246 5.29753 6.02705 5.2008 7.71844 5.05762ZM0 12.1904C0 8.5584 0 6.7424 1.18258 5.37374C1.24166 5.30536 1.32052 5.21954 1.38368 5.1549C2.64771 3.86109 4.2924 3.72186 7.58179 3.44339C9.02215 3.32146 10.5741 3.24 12.15 3.24C13.7259 3.24 15.2778 3.32146 16.7182 3.44339C20.0076 3.72186 21.6523 3.86109 22.9163 5.1549C22.9795 5.21954 23.0583 5.30536 23.1174 5.37374C24.3 6.7424 24.3 8.5584 24.3 12.1904C24.3 15.779 24.3 17.5733 23.1154 18.9425C23.0567 19.0104 22.9767 19.0973 22.914 19.1614C21.6479 20.4556 20.0322 20.5903 16.8008 20.8595C15.3571 20.9798 13.7827 21.06 12.15 21.06C10.5173 21.06 8.94286 20.9798 7.49923 20.8595C4.26783 20.5903 2.65213 20.4556 1.386 19.1614C1.32329 19.0973 1.24326 19.0104 1.18458 18.9425C0 17.5733 0 15.779 0 12.1904ZM8.505 8.71988C8.505 8.42766 8.80505 8.23161 9.07267 8.34899L16.8934 11.7791C17.2165 11.9208 17.2165 12.3792 16.8934 12.5209L9.07267 15.951C8.80505 16.0684 8.505 15.8724 8.505 15.5801V8.71988Z" fill="black"/>
</svg>
